<svg width="20" height="20" viewBox="0 0 20 20" fill="none" xmlns="http://www.w3.org/2000/svg">
<path d="M5 14C4.16667 14 3.45833 13.7083 2.875 13.125C2.29167 12.5417 2 11.8333 2 11H0V8C0 6.9 0.391667 5.95833 1.175 5.175C1.95833 4.39167 2.9 4 4 4H8V9H11.5L15 4.65V2H12V0H15C15.55 0 16.0208 0.195833 16.4125 0.5875C16.8042 0.979167 17 1.45 17 2V5.35L12.5 11H8C8 11.8333 7.70833 12.5417 7.125 13.125C6.54167 13.7083 5.83333 14 5 14ZM5 12C5.28333 12 5.52083 11.9042 5.7125 11.7125C5.90417 11.5208 6 11.2833 6 11H4C4 11.2833 4.09583 11.5208 4.2875 11.7125C4.47917 11.9042 4.71667 12 5 12ZM3 3V1H8V3H3ZM17 14C16.1667 14 15.4583 13.7083 14.875 13.125C14.2917 12.5417 14 11.8333 14 11C14 10.1667 14.2917 9.45833 14.875 8.875C15.4583 8.29167 16.1667 8 17 8C17.8333 8 18.5417 8.29167 19.125 8.875C19.7083 9.45833 20 10.1667 20 11C20 11.8333 19.7083 12.5417 19.125 13.125C18.5417 13.7083 17.8333 14 17 14ZM17 12C17.2833 12 17.5208 11.9042 17.7125 11.7125C17.9042 11.5208 18 11.2833 18 11C18 10.7167 17.9042 10.4792 17.7125 10.2875C17.5208 10.0958 17.2833 10 17 10C16.7167 10 16.4792 10.0958 16.2875 10.2875C16.0958 10.4792 16 10.7167 16 11C16 11.2833 16.0958 11.5208 16.2875 11.7125C16.4792 11.9042 16.7167 12 17 12ZM11 20L5 17H9V15L15 18H11V20ZM2 9H6V6H4C3.45 6 2.97917 6.19583 2.5875 6.5875C2.19583 6.97917 2 7.45 2 8V9Z" fill="#9CA3AF"/>
</svg>
