<svg width="31" height="31" viewBox="0 0 31 31" fill="none" xmlns="http://www.w3.org/2000/svg">
<path d="M12.9977 22.1077L23.5727 11.5327L21.4727 9.4327L12.9977 17.9077L8.72272 13.6327L6.62272 15.7327L12.9977 22.1077ZM15.0977 30.2077C13.0227 30.2077 11.0727 29.814 9.24772 29.0265C7.42272 28.239 5.83522 27.1702 4.48522 25.8202C3.13522 24.4702 2.06647 22.8827 1.27897 21.0577C0.491467 19.2327 0.0977173 17.2827 0.0977173 15.2077C0.0977173 13.1327 0.491467 11.1827 1.27897 9.3577C2.06647 7.5327 3.13522 5.9452 4.48522 4.5952C5.83522 3.2452 7.42272 2.17645 9.24772 1.38895C11.0727 0.601453 13.0227 0.207703 15.0977 0.207703C17.1727 0.207703 19.1227 0.601453 20.9477 1.38895C22.7727 2.17645 24.3602 3.2452 25.7102 4.5952C27.0602 5.9452 28.129 7.5327 28.9165 9.3577C29.704 11.1827 30.0977 13.1327 30.0977 15.2077C30.0977 17.2827 29.704 19.2327 28.9165 21.0577C28.129 22.8827 27.0602 24.4702 25.7102 25.8202C24.3602 27.1702 22.7727 28.239 20.9477 29.0265C19.1227 29.814 17.1727 30.2077 15.0977 30.2077ZM15.0977 27.2077C18.4477 27.2077 21.2852 26.0452 23.6102 23.7202C25.9352 21.3952 27.0977 18.5577 27.0977 15.2077C27.0977 11.8577 25.9352 9.0202 23.6102 6.6952C21.2852 4.3702 18.4477 3.2077 15.0977 3.2077C11.7477 3.2077 8.91022 4.3702 6.58522 6.6952C4.26022 9.0202 3.09772 11.8577 3.09772 15.2077C3.09772 18.5577 4.26022 21.3952 6.58522 23.7202C8.91022 26.0452 11.7477 27.2077 15.0977 27.2077Z" fill="#2FDC9B"/>
</svg>
