<svg width="32" height="32" viewBox="0 0 32 32" fill="none" xmlns="http://www.w3.org/2000/svg">
<path d="M10.0177 23.4577L15.5977 17.8777L21.1777 23.4577L23.3477 21.2877L17.7677 15.7077L23.3477 10.1277L21.1777 7.9577L15.5977 13.5377L10.0177 7.9577L7.84772 10.1277L13.4277 15.7077L7.84772 21.2877L10.0177 23.4577ZM15.5977 31.2077C13.4536 31.2077 11.4386 30.8008 9.55272 29.9871C7.66688 29.1733 6.02647 28.069 4.63147 26.674C3.23647 25.279 2.13209 23.6385 1.31834 21.7527C0.504592 19.8669 0.0977173 17.8519 0.0977173 15.7077C0.0977173 13.5635 0.504592 11.5485 1.31834 9.6627C2.13209 7.77687 3.23647 6.13645 4.63147 4.74145C6.02647 3.34645 7.66688 2.24208 9.55272 1.42833C11.4386 0.614578 13.4536 0.207703 15.5977 0.207703C17.7419 0.207703 19.7569 0.614578 21.6427 1.42833C23.5286 2.24208 25.169 3.34645 26.564 4.74145C27.959 6.13645 29.0633 7.77687 29.8771 9.6627C30.6908 11.5485 31.0977 13.5635 31.0977 15.7077C31.0977 17.8519 30.6908 19.8669 29.8771 21.7527C29.0633 23.6385 27.959 25.279 26.564 26.674C25.169 28.069 23.5286 29.1733 21.6427 29.9871C19.7569 30.8008 17.7419 31.2077 15.5977 31.2077ZM15.5977 28.1077C19.0594 28.1077 21.9915 26.9065 24.394 24.504C26.7965 22.1015 27.9977 19.1694 27.9977 15.7077C27.9977 12.246 26.7965 9.31395 24.394 6.91145C21.9915 4.50895 19.0594 3.3077 15.5977 3.3077C12.1361 3.3077 9.20397 4.50895 6.80147 6.91145C4.39897 9.31395 3.19772 12.246 3.19772 15.7077C3.19772 19.1694 4.39897 22.1015 6.80147 24.504C9.20397 26.9065 12.1361 28.1077 15.5977 28.1077Z" fill="#727272"/>
</svg>
