<svg width="41" height="45" viewBox="0 0 41 45" fill="none" xmlns="http://www.w3.org/2000/svg">
<path d="M6.15 34.7727C4.44167 34.7727 2.98958 34.1761 1.79375 32.983C0.597917 31.7898 0 30.3409 0 28.6364C0 26.9318 0.597917 25.483 1.79375 24.2898C2.98958 23.0966 4.44167 22.5 6.15 22.5C7.4825 22.5 8.66979 22.8835 9.71187 23.6506C10.754 24.4176 11.48 25.3977 11.89 26.5909H22.755C23.1308 24.2727 24.096 22.2443 25.6506 20.5057C27.2052 18.767 29.11 17.5568 31.365 16.875L28.495 4.09091H20.5V0H28.495C29.4175 0 30.2631 0.298295 31.0319 0.894886C31.8006 1.49148 32.2875 2.25 32.4925 3.17045L36.3875 20.4545H34.85C32.595 20.4545 30.6646 21.2557 29.0588 22.858C27.4529 24.4602 26.65 26.3864 26.65 28.6364V30.6818H11.89C11.48 31.875 10.754 32.8551 9.71187 33.6222C8.66979 34.3892 7.4825 34.7727 6.15 34.7727ZM6.15 30.6818C6.73083 30.6818 7.21771 30.4858 7.61062 30.0938C8.00354 29.7017 8.2 29.2159 8.2 28.6364C8.2 28.0568 8.00354 27.571 7.61062 27.179C7.21771 26.7869 6.73083 26.5909 6.15 26.5909C5.56917 26.5909 5.08229 26.7869 4.68937 27.179C4.29646 27.571 4.1 28.0568 4.1 28.6364C4.1 29.2159 4.29646 29.7017 4.68937 30.0938C5.08229 30.4858 5.56917 30.6818 6.15 30.6818ZM34.85 34.7727C33.1417 34.7727 31.6896 34.1761 30.4937 32.983C29.2979 31.7898 28.7 30.3409 28.7 28.6364C28.7 26.9318 29.2979 25.483 30.4937 24.2898C31.6896 23.0966 33.1417 22.5 34.85 22.5C36.5583 22.5 38.0104 23.0966 39.2062 24.2898C40.4021 25.483 41 26.9318 41 28.6364C41 30.3409 40.4021 31.7898 39.2062 32.983C38.0104 34.1761 36.5583 34.7727 34.85 34.7727ZM34.85 30.6818C35.4308 30.6818 35.9177 30.4858 36.3106 30.0938C36.7035 29.7017 36.9 29.2159 36.9 28.6364C36.9 28.0568 36.7035 27.571 36.3106 27.179C35.9177 26.7869 35.4308 26.5909 34.85 26.5909C34.2692 26.5909 33.7823 26.7869 33.3894 27.179C32.9965 27.571 32.8 28.0568 32.8 28.6364C32.8 29.2159 32.9965 29.7017 33.3894 30.0938C33.7823 30.4858 34.2692 30.6818 34.85 30.6818ZM22.55 45L10.25 38.8636H18.45V34.7727L30.75 40.9091H22.55V45Z" fill="#2FDC9B"/>
</svg>
