<svg width="26" height="33" viewBox="0 0 26 33" fill="none" xmlns="http://www.w3.org/2000/svg">
<path d="M13 16.5C13.8937 16.5 14.6589 16.1769 15.2953 15.5306C15.9318 14.8844 16.25 14.1075 16.25 13.2C16.25 12.2925 15.9318 11.5156 15.2953 10.8694C14.6589 10.2231 13.8937 9.9 13 9.9C12.1062 9.9 11.3411 10.2231 10.7047 10.8694C10.0682 11.5156 9.75 12.2925 9.75 13.2C9.75 14.1075 10.0682 14.8844 10.7047 15.5306C11.3411 16.1769 12.1062 16.5 13 16.5ZM13 28.6275C16.3042 25.5475 18.7552 22.7494 20.3531 20.2331C21.951 17.7169 22.75 15.4825 22.75 13.53C22.75 10.5325 21.8089 8.07812 19.9266 6.16688C18.0443 4.25563 15.7354 3.3 13 3.3C10.2646 3.3 7.95573 4.25563 6.07344 6.16688C4.19115 8.07812 3.25 10.5325 3.25 13.53C3.25 15.4825 4.04896 17.7169 5.64687 20.2331C7.24479 22.7494 9.69583 25.5475 13 28.6275ZM13 33C8.63958 29.2325 5.38281 25.7331 3.22969 22.5019C1.07656 19.2706 0 16.28 0 13.53C0 9.405 1.30677 6.11875 3.92031 3.67125C6.53385 1.22375 9.56042 0 13 0C16.4396 0 19.4661 1.22375 22.0797 3.67125C24.6932 6.11875 26 9.405 26 13.53C26 16.28 24.9234 19.2706 22.7703 22.5019C20.6172 25.7331 17.3604 29.2325 13 33Z" fill="#9DA5A2"/>
</svg>
