<svg width="26" height="26" viewBox="0 0 26 26" fill="none" xmlns="http://www.w3.org/2000/svg">
<path d="M17.3333 26L8.66667 22.9667L1.95 25.5667C1.46852 25.7593 1.02315 25.7051 0.613889 25.4042C0.20463 25.1032 0 24.7 0 24.1944V3.97222C0 3.65926 0.0902778 3.38241 0.270833 3.14167C0.451389 2.90093 0.698148 2.72037 1.01111 2.6L8.66667 0L17.3333 3.03333L24.05 0.433333C24.5315 0.240741 24.9769 0.294907 25.3861 0.595833C25.7954 0.896759 26 1.3 26 1.80556V22.0278C26 22.3407 25.9097 22.6176 25.7292 22.8583C25.5486 23.0991 25.3019 23.2796 24.9889 23.4L17.3333 26ZM15.8889 22.4611V5.56111L10.1111 3.53889V20.4389L15.8889 22.4611ZM18.7778 22.4611L23.1111 21.0167V3.9L18.7778 5.56111V22.4611ZM2.88889 22.1L7.22222 20.4389V3.53889L2.88889 4.98333V22.1Z" fill="#9DA5A2"/>
</svg>
