<svg width="28" height="40" viewBox="0 0 28 40" fill="none" xmlns="http://www.w3.org/2000/svg">
<path d="M17.479 39.2081L2.34772 24.0414V19.7081H10.2227C12.2102 19.7081 13.9258 19.0852 15.3696 17.8393C16.8133 16.5935 17.6852 15.0497 17.9852 13.2081H0.0977173V8.87474H17.3102C16.6727 7.61085 15.7258 6.57265 14.4696 5.76015C13.2133 4.94765 11.7977 4.5414 10.2227 4.5414H0.0977173V0.208069H27.0977V4.5414H19.7852C20.3102 5.15529 20.779 5.82335 21.1915 6.54557C21.604 7.26779 21.9227 8.04418 22.1477 8.87474H27.0977V13.2081H22.5415C22.2415 16.2775 20.929 18.8504 18.604 20.9268C16.279 23.0032 13.4852 24.0414 10.2227 24.0414H8.59147L23.7227 39.2081H17.479Z" fill="#1E1E1E"/>
</svg>
