<svg width="26" height="26" viewBox="0 0 26 26" fill="none" xmlns="http://www.w3.org/2000/svg">
<path d="M2.6 14.3V16.9H23.4V14.3H2.6ZM2.6 0H23.4C24.115 0 24.7271 0.254583 25.2362 0.76375C25.7454 1.27292 26 1.885 26 2.6V16.9C26 17.615 25.7454 18.2271 25.2362 18.7362C24.7271 19.2454 24.115 19.5 23.4 19.5H18.2V26L13 23.4L7.8 26V19.5H2.6C1.885 19.5 1.27292 19.2454 0.76375 18.7362C0.254583 18.2271 0 17.615 0 16.9V2.6C0 1.885 0.254583 1.27292 0.76375 0.76375C1.27292 0.254583 1.885 0 2.6 0ZM2.6 10.4H23.4V2.6H2.6V10.4Z" fill="#9DA5A2"/>
</svg>
